# xmcd
#
# Track frame offsets:
#	150
#	9734
#	21267
#	33018
#	47220
#	60563
#	73472
#	88763
#	97969
#	110153
#	119638
#	129676
#	144897
#	157115
#	172169
#	184729
#
# Disc length: 2596 seconds
#
# Revision: 0
# Processed by: cddbd v1.5.1PL0 Copyright (c) Steve Scherf et al.
# Submitted via: EasyCDDAExtractor 8.0.2.1
#
DISCID=eb0a2210
DTITLE=Various Artist - Heartbreakers
DYEAR=1900
DGENRE=
TTITLE0=The Drifters - There Goes My Baby
TTITLE1=Jerry Butler - Make It Easy On Yourself
TTITLE2=The Foundations - Build Me Up Buttercup
TTITLE3=Billy Ocean - Love Really Hurts Without You
TTITLE4=The Searchers - Goodbye My Love
TTITLE5=Kenny Rogers - Ruby Don't Take Your Love
TTITLE6=Mamas and Papas - Monday Monday
TTITLE7=Gladys Knight - Every Beat Of My Heart
TTITLE8=Hank Williams - Lovesick Blues
TTITLE9=The Ivy League - Funny How Love Can Be
TTITLE10=Betty Everett - It's In His Kiss
TTITLE11=Mary Wells - My Guy
TTITLE12=The Temptations - I'm Losing You
TTITLE13=Denny Laine and Wings - Go Now
TTITLE14=Buddy Holly and The Picks - Raining In My Heart
TTITLE15=The Drifters - Dance With Me
EXTD=
EXTT0=
EXTT1=
EXTT2=
EXTT3=
EXTT4=
EXTT5=
EXTT6=
EXTT7=
EXTT8=
EXTT9=
EXTT10=
EXTT11=
EXTT12=
EXTT13=
EXTT14=
EXTT15=
PLAYORDER=
